<?xml version="1.0" encoding="utf-8"?>
<!-- Generated by IcoMoon.io -->
<!DOCTYPE svg PUBLIC "-//W3C//DTD SVG 1.1//EN" "http://www.w3.org/Graphics/SVG/1.1/DTD/svg11.dtd">
<svg version="1.1" xmlns="http://www.w3.org/2000/svg" xmlns:xlink="http://www.w3.org/1999/xlink" width="64" height="64" viewBox="0 0 64 64">
<path fill="#ffffff" d="M64 48v4.571q0 0.929-0.679 1.607t-1.607 0.679h-59.429q-0.929 0-1.607-0.679t-0.679-1.607v-4.571q0-0.929 0.679-1.607t1.607-0.679h59.429q0.929 0 1.607 0.679t0.679 1.607zM50.286 34.286v4.571q0 0.929-0.679 1.607t-1.607 0.679h-45.714q-0.929 0-1.607-0.679t-0.679-1.607v-4.571q0-0.929 0.679-1.607t1.607-0.679h45.714q0.929 0 1.607 0.679t0.679 1.607zM59.429 20.571v4.571q0 0.929-0.679 1.607t-1.607 0.679h-54.857q-0.929 0-1.607-0.679t-0.679-1.607v-4.571q0-0.929 0.679-1.607t1.607-0.679h54.857q0.929 0 1.607 0.679t0.679 1.607zM45.714 6.857v4.571q0 0.929-0.679 1.607t-1.607 0.679h-41.143q-0.929 0-1.607-0.679t-0.679-1.607v-4.571q0-0.929 0.679-1.607t1.607-0.679h41.143q0.929 0 1.607 0.679t0.679 1.607z"></path>
</svg>
